HIERARCHY
ROOT hip
{
	OFFSET 0.000000 0.000000 0.000000 
	CHANNELS 6 Xposition Yposition Zposition Xrotation Zrotation Yrotation
	JOINT abdomen
	{
		OFFSET 0.000000 3.402643 0.000000 
		CHANNELS 3 Xrotation Zrotation Yrotation
		JOINT chest
		{
			OFFSET 0.000000 8.438565 -0.680529 
			CHANNELS 3 Xrotation Zrotation Yrotation
			JOINT neck
			{
				OFFSET 0.000000 10.207942 -0.272212 
				CHANNELS 3 Xrotation Zrotation Yrotation
				JOINT head
				{
					OFFSET 0.000000 3.130431 0.000000 
					CHANNELS 3 Xrotation Zrotation Yrotation
					End Site
					{
						OFFSET 0.000000 3.130435 0.000000 
					}
				}
			}
			JOINT lCollar
			{
				OFFSET 3.470700 6.669187 -0.816635 
				CHANNELS 3 Yrotation Zrotation Xrotation
				JOINT lShldr
				{
					OFFSET 3.198488 0.000000 0.000000 
					CHANNELS 3 Zrotation Yrotation Xrotation
					JOINT lForeArm
					{
						OFFSET 10.139888 0.000000 0.000000 
						CHANNELS 3 Yrotation Zrotation Xrotation
						JOINT lHand
						{
							OFFSET 8.370511 0.000000 0.000000 
							CHANNELS 3 Zrotation Yrotation Xrotation
							End Site
							{
								OFFSET 4.083176 0.000000 0.000000 
							}
						}
					}
				}
			}
			JOINT rCollar
			{
				OFFSET -3.470700 6.669187 -0.816635 
				CHANNELS 3 Yrotation Zrotation Xrotation
				JOINT rShldr
				{
					OFFSET -3.198488 0.000000 0.000000 
					CHANNELS 3 Zrotation Yrotation Xrotation
					JOINT rForeArm
					{
						OFFSET -10.139888 0.000000 0.000000 
						CHANNELS 3 Yrotation Zrotation Xrotation
						JOINT rHand
						{
							OFFSET -8.370511 0.000000 0.000000 
							CHANNELS 3 Zrotation Yrotation Xrotation
							End Site
							{
								OFFSET -4.083176 0.000000 0.000000 
							}
						}
					}
				}
			}
		}
	}
	JOINT lThigh
	{
		OFFSET 5.308129 -1.633274 1.361059 
		CHANNELS 3 Xrotation Zrotation Yrotation
		JOINT lShin
		{
			OFFSET -2.041588 -20.007561 0.000000 
			CHANNELS 3 Xrotation Zrotation Yrotation
			JOINT lFoot
			{
				OFFSET 0.000000 -19.190928 -1.224953 
				CHANNELS 3 Xrotation Yrotation Zrotation
				End Site
				{
					OFFSET 0.000000 -2.449906 4.627600 
				}
			}
		}
	}
	JOINT rThigh
	{
		OFFSET -5.308129 -1.633274 1.361059 
		CHANNELS 3 Xrotation Zrotation Yrotation
		JOINT rShin
		{
			OFFSET 2.041588 -20.007561 0.000000 
			CHANNELS 3 Xrotation Zrotation Yrotation
			JOINT rFoot
			{
				OFFSET 0.000000 -19.190928 -1.224953 
				CHANNELS 3 Xrotation Yrotation Zrotation
				End Site
				{
					OFFSET 0.000000 -2.449906 4.627600 
				}
			}
		}
	}
}
MOTION
Frames: 18
Frame Time: 0.016667
-0.095307 44.905994 -0.044708 7.812990 0.638549 -4.941580 -18.577299 1.273660 -1.189860 19.570101 1.220520 -0.401871 8.393450 4.153500 -0.482489 9.560550 6.433180 0.166179 2.000000 -2.000000 0.000000 96.561996 -171.987000 -6.201660 13.691600 -0.347679 0.032421 0.059409 0.067261 -112.137001 -2.000000 2.000000 0.000000 -100.947998 -179.789001 -5.859890 -79.824699 0.239002 0.134574 -0.175203 0.155463 147.384995 -8.828149 -1.242951 -3.906142 17.349291 2.776893 1.386585 -25.672628 27.395340 14.586248 -17.928724 4.863988 20.029451 22.130796 -2.308159 -1.926605 -12.507706 -21.973154 -6.034382 
-0.270087 44.897240 -0.032292 8.379460 0.656974 -6.045700 -18.470400 1.342880 -1.199500 19.667700 1.367020 -0.392296 9.169150 3.582860 0.014116 9.744940 6.255840 0.383306 2.000000 -2.000000 0.000000 96.502602 -171.436996 -3.680820 14.463100 -0.347231 0.034207 0.056864 0.051685 -114.402000 -2.000000 2.000000 0.000000 -101.094002 -179.490997 -3.643800 -84.082603 0.228944 0.135997 -0.172559 0.164531 148.360992 -9.270492 -0.960113 -3.513614 17.353819 2.752697 1.403056 -26.463770 27.475174 15.187537 -18.476839 5.164745 20.217958 21.746323 -2.230268 -1.929817 -11.793445 -21.293833 -5.631215 
-0.414706 44.883995 -0.020374 8.750340 0.501902 -6.690240 -18.332399 1.300980 -1.366430 19.658001 1.230320 -0.478277 10.077300 3.082650 0.445239 9.978620 6.097340 0.558742 2.000000 -2.000000 0.000000 96.316704 -170.539001 -3.415030 14.677900 -0.347102 0.034703 0.056718 0.051331 -114.539001 -2.000000 2.000000 0.000000 -101.103996 -179.350006 -1.847250 -87.852097 0.219973 0.136630 -0.169665 0.163711 149.436005 -9.673813 -0.562945 -3.197390 17.641321 2.751578 1.418013 -26.800301 27.515879 15.444840 -18.809259 5.535583 20.132595 21.435925 -2.185630 -1.908996 -11.510574 -20.702208 -5.395928 
-0.550436 44.869572 0.012154 9.004550 0.684815 -7.371840 -18.115101 1.147450 -1.524890 19.726400 1.122930 -0.582675 10.976700 2.679900 0.877896 10.232800 6.006570 0.752035 2.000000 -2.000000 0.000000 96.091698 -169.285995 -4.398420 14.492400 -0.347214 0.034275 0.057500 0.053197 -113.816002 -2.000000 2.000000 0.000000 -101.103996 -179.384995 -0.235943 -91.387199 0.211776 0.117158 -0.165796 0.152757 150.880997 -9.801858 -0.536097 -2.895280 17.650957 2.750511 1.407943 -27.287266 27.553183 15.784018 -19.124825 5.538526 20.003918 21.409756 -2.163908 -1.934951 -11.237097 -19.905972 -5.095009 
-0.679498 44.854259 0.060144 9.152180 1.128040 -8.079840 -17.838499 0.912957 -1.677060 19.853399 1.044840 -0.686650 11.886200 2.355270 1.323560 10.497200 5.954440 0.940160 2.000000 -2.000000 0.000000 95.876602 -167.757996 -6.328450 13.994300 -0.347506 0.033123 0.059033 0.066441 -112.459000 -2.000000 2.000000 0.000000 -101.084000 -179.548004 1.229400 -94.726997 0.204387 0.116763 -0.161211 0.160973 152.610001 -9.744117 -0.775706 -2.640286 17.381147 2.708122 1.415741 -27.838179 27.565565 16.206144 -19.548491 5.360203 19.785923 21.773520 -2.171398 -1.967841 -11.034233 -19.008076 -4.728327 
-0.831020 44.828522 0.070277 9.600220 0.645135 -8.660310 -17.641100 0.949757 -1.939430 19.814400 0.790949 -0.811027 12.611500 2.015060 1.717190 10.712600 5.912630 1.114170 2.000000 -2.000000 0.000000 95.895599 -166.192993 -7.457620 13.525500 -0.347772 0.032036 0.060339 0.069241 -111.355003 -2.000000 2.000000 0.000000 -100.907997 -179.722000 1.991530 -98.017998 0.197141 0.115955 -0.157031 0.149660 154.201004 -10.477848 0.072280 -1.904988 18.238585 2.735074 1.465392 -27.789400 27.360159 16.076311 -19.794329 6.055798 19.522385 21.259636 -2.104328 -1.956861 -10.578332 -18.473612 -4.516540 
-0.990480 44.802135 0.085026 10.058600 0.182695 -9.215610 -17.453100 0.992619 -2.213310 19.785101 0.556590 -0.935229 13.269000 1.677550 2.095750 10.918100 5.861210 1.286710 2.000000 -2.000000 0.000000 96.031403 -164.688995 -7.708050 13.222800 -0.347939 0.031334 0.060922 0.070448 -110.876999 -2.000000 2.000000 0.000000 -100.762001 -179.856995 2.597330 -101.250000 0.190081 0.114756 -0.153072 0.148070 155.725006 -11.322766 0.912772 -1.075341 19.279982 2.791477 1.546530 -27.645737 27.116920 15.829989 -20.014166 6.734918 19.308998 20.757774 -2.017697 -1.953035 -10.200891 -18.020943 -4.339898 
-1.175125 44.781799 0.165322 10.235100 0.691937 -9.660110 -17.146099 0.766249 -2.399110 19.980400 0.576143 -1.060480 13.765800 1.386510 2.386760 11.094500 5.839260 1.419450 2.000000 -2.000000 0.000000 96.556999 -163.623993 -3.506380 13.867300 -0.347579 0.032829 0.057318 0.052769 -113.982002 -2.000000 2.000000 0.000000 -100.967003 -179.738998 2.938840 -104.238998 0.183623 0.113296 -0.149832 0.146676 156.985001 -11.430852 0.748356 -0.028096 19.265656 2.752303 1.540523 -27.155947 27.015448 15.606176 -20.435369 6.569195 19.358685 21.278656 -2.029566 -2.002257 -10.453492 -17.519997 -4.244348 
-1.345475 44.756069 0.246756 10.363000 1.018270 -9.833190 -16.837400 0.567138 -2.706920 20.117201 0.517563 -1.234440 14.212200 1.023840 2.678650 11.260700 5.798050 1.548620 2.000000 -2.000000 0.000000 97.054100 -162.658005 0.861071 14.785300 -0.347037 0.034951 0.053780 0.043642 -117.477997 -2.000000 2.000000 0.000000 -101.112999 -179.729004 2.870460 -107.012001 0.177706 0.111641 -0.148410 0.146037 157.541000 -11.660626 0.749757 0.952314 19.528030 2.727973 1.601248 -26.378567 26.869625 15.147560 -20.722038 6.484787 19.213509 21.700087 -2.039119 -2.014719 -10.687324 -17.183355 -4.181922 
-1.496806 44.723251 0.329708 10.431600 1.104490 -9.659800 -16.506100 0.391459 -3.174330 20.175800 0.361320 -1.486780 14.588600 0.553191 2.969140 11.426100 5.698710 1.689580 2.000000 -2.000000 0.000000 97.532600 -161.858994 5.433210 16.064600 -0.346225 0.037894 0.050392 0.032842 -121.521004 -2.000000 2.000000 0.000000 -101.200996 -179.858002 2.255530 -109.501999 0.172466 0.109913 -0.149357 0.146464 157.169998 -11.971240 0.994461 1.898521 19.974667 2.712191 1.621457 -25.193087 26.668243 14.418135 -20.916965 6.540813 18.848986 22.142445 -2.042028 -2.044713 -10.935527 -17.015770 -4.204158 
-1.660606 44.691975 0.429463 10.548900 1.113670 -9.470210 -16.202600 0.281246 -3.661550 20.302700 0.253904 -1.729640 14.661800 0.053877 3.264820 11.453800 5.582070 1.842450 2.000000 -2.000000 0.000000 -82.203400 -19.099400 -170.863007 16.963100 -0.345616 0.039949 0.048082 0.023330 -125.017998 -2.000000 2.000000 0.000000 -101.514000 179.945007 1.425920 -112.022003 0.167246 0.107935 -0.152442 0.147805 155.968994 -12.588142 1.305134 2.790041 20.990927 2.720452 1.685459 -24.296522 26.420547 13.784803 -21.013964 6.674035 18.691442 22.388803 -2.039805 -2.068229 -11.228053 -16.981056 -4.269219 
-1.829395 44.661480 0.535941 10.695300 1.093950 -9.265910 -15.897900 0.193493 -4.144270 20.439501 0.166015 -1.973000 14.608000 -0.450622 3.579780 11.432200 5.446780 1.998780 2.000000 -2.000000 0.000000 -82.066002 -20.116899 -167.481995 17.715000 -0.345081 0.041662 0.046449 0.024083 -128.289001 -2.000000 2.000000 0.000000 -101.914001 179.738007 0.518211 -114.560997 0.162079 0.105711 -0.156419 0.159187 154.436005 -13.214806 1.657938 3.656862 22.019482 2.711740 1.775563 -23.422764 26.066164 13.190079 -21.080164 6.841993 18.591730 22.537312 -2.031050 -2.082857 -11.523067 -16.974579 -4.380953 
-2.010753 44.656063 0.669342 10.939700 1.131410 -9.117120 -15.749100 0.109053 -4.591460 20.556601 0.146484 -2.197270 14.963100 -0.937545 3.955220 11.538000 5.300000 2.185210 2.000000 -2.000000 0.000000 -82.536201 -21.504000 -167.654999 16.953300 -0.345623 0.039926 0.046933 0.027079 -127.205002 -2.000000 2.000000 0.000000 -102.412003 179.345001 -0.408478 -116.738998 0.157729 0.103622 -0.156623 0.159267 154.358002 -13.973128 1.982554 4.333342 23.197388 2.677522 1.858592 -22.468176 25.964806 12.675619 -21.190355 6.964739 18.559366 22.578245 -2.014907 -2.089134 -11.869249 -16.778397 -4.428356 
-2.190023 44.655422 0.815058 11.164600 1.197610 -8.933420 -15.627000 0.010901 -5.075740 20.654301 0.146484 -2.441130 15.434400 -1.392400 4.374470 11.693200 5.181610 2.398900 2.000000 -2.000000 0.000000 -83.133797 -22.902901 -168.658005 16.025600 -0.346251 0.037804 0.047992 0.022902 -125.174004 -2.000000 2.000000 0.000000 -102.939003 178.884003 -1.257100 -118.837997 0.153614 0.101454 -0.156801 0.159336 154.289001 -14.780850 2.296538 4.988458 24.510632 2.659522 1.961049 -21.525785 25.817068 12.110827 -21.221958 7.042150 18.523630 22.589836 -1.998074 -2.095486 -12.150643 -16.662806 -4.471549 
-2.364068 44.666622 0.991564 11.311600 1.302340 -8.674910 -15.568300 -0.121769 -5.653340 20.742201 0.195311 -2.743470 16.215000 -1.794070 4.883710 11.957100 5.119770 2.649020 2.000000 -2.000000 0.000000 -84.005997 -24.345800 -171.794998 14.658400 -0.347114 0.034658 0.050949 0.034816 -120.789001 -2.000000 2.000000 0.000000 -103.573997 178.207993 -1.919550 -120.733002 0.149971 0.099369 -0.156929 0.159386 154.240005 -15.567823 2.549175 5.641984 25.961130 2.631251 2.058904 -20.448908 25.525753 11.464018 -21.125032 7.025762 18.433834 22.580149 -1.996733 -2.095474 -12.308554 -16.646700 -4.522187 
-2.533452 44.690823 1.185532 11.420200 1.531580 -8.586990 -15.562000 -0.288172 -6.071720 20.810499 0.156248 -2.958270 17.020599 -2.179410 5.309070 12.230900 5.067420 2.861780 2.000000 -2.000000 0.000000 95.044098 -154.395004 4.213710 13.593900 -0.347734 0.032195 0.055411 0.048054 -115.799004 -2.000000 2.000000 0.000000 -104.130997 177.612000 -2.308350 -122.471001 0.146690 0.097351 -0.156215 0.159108 154.514008 -16.382547 2.700800 6.048033 27.576433 2.615270 2.165230 -19.805162 25.157598 11.000083 -20.983988 6.928650 18.457655 22.492363 -1.992091 -2.096535 -12.529022 -16.612553 -4.562004 
-2.699308 44.724926 1.392600 11.509900 1.837320 -8.629720 -15.588600 -0.479664 -6.362910 20.859400 0.068358 -3.124630 17.839800 -2.536870 5.682620 12.514400 5.014860 3.045610 2.000000 -2.000000 0.000000 94.075401 -153.231003 -0.432069 12.744300 -0.348195 0.030221 0.061552 0.071723 -110.369003 -2.000000 2.000000 0.000000 -104.628998 177.074005 -2.492530 -124.082001 0.143705 0.095392 -0.154869 0.158572 155.031006 -17.103804 2.783918 6.287659 29.097286 2.551610 2.280734 -19.391380 24.697641 10.677840 -20.812098 6.759531 18.562597 22.352644 -2.008678 -2.073015 -12.769920 -16.523115 -4.589714 
-2.849044 44.748989 1.614636 11.376200 2.269030 -9.006450 -15.603500 -0.674617 -6.440450 20.888700 -0.019531 -3.183710 18.243999 -2.922770 5.976660 12.631200 4.955150 3.193600 2.000000 -2.000000 0.000000 93.478699 -152.447998 -1.113880 12.490400 -0.348328 0.029630 0.062960 0.074473 -109.265999 -2.000000 2.000000 0.000000 -105.068001 176.714005 -1.827540 -125.654999 0.140847 0.093400 -0.153198 0.148122 155.675995 -17.613659 2.734770 6.878549 30.741343 2.509348 2.367891 -18.209898 24.732372 10.130276 -20.579916 6.567269 18.872866 22.549372 -2.013441 -2.099205 -13.046708 -16.434565 -4.600020 
